<svg xmlns="http://www.w3.org/2000/svg" xmlns:xlink="http://www.w3.org/1999/xlink" width="219" height="172" viewBox="0 0 219 172">
  <defs>
    <linearGradient id="linear-gradient" x1="0.5" x2="0.5" y2="1" gradientUnits="objectBoundingBox">
      <stop offset="0.01" stop-color="#f2e7fe"/>
      <stop offset="0.41" stop-color="#c5a2fd"/>
      <stop offset="1" stop-color="#7f39fb"/>
    </linearGradient>
  </defs>
  <path id="Exclusão_1" data-name="Exclusão 1" d="M-4477,2418h-38a49.941,49.941,0,0,1-15.755-2.533,49.789,49.789,0,0,1-13.693-7.055,50.2,50.2,0,0,1-10.815-10.761,49.8,49.8,0,0,1-7.122-13.652H-4558a49.714,49.714,0,0,0,28.427-8.861c-.129-.1-.205-.168-.222-.183l0,0v0l.49,0c-.074.053-.148.1-.223.156l-.042.029a54.253,54.253,0,0,0,10.722,6.5,54.726,54.726,0,0,0,23.283,5.361c11.575,0,22.8-3.984,33.368-11.842l-67.108-.2A50.091,50.091,0,0,0-4508,2334v-38a49.942,49.942,0,0,0-2.615-16H-4477a49.69,49.69,0,0,1,19.462,3.929,49.833,49.833,0,0,1,15.893,10.715,49.827,49.827,0,0,1,10.716,15.893A49.681,49.681,0,0,1-4427,2330v38a49.681,49.681,0,0,1-3.929,19.462,49.835,49.835,0,0,1-10.716,15.893,49.833,49.833,0,0,1-15.893,10.715A49.69,49.69,0,0,1-4477,2418Zm4.9-103a9.91,9.91,0,0,0-9.9,9.9,9.91,9.91,0,0,0,9.9,9.9,9.91,9.91,0,0,0,9.9-9.9A9.911,9.911,0,0,0-4472.1,2315Zm-90.284,69H-4596a49.692,49.692,0,0,1-19.462-3.929,49.832,49.832,0,0,1-15.893-10.715,49.831,49.831,0,0,1-10.716-15.893A49.681,49.681,0,0,1-4646,2334v-38a49.681,49.681,0,0,1,3.929-19.462,49.83,49.83,0,0,1,10.716-15.893,49.84,49.84,0,0,1,15.893-10.716A49.69,49.69,0,0,1-4596,2246h38a49.941,49.941,0,0,1,15.755,2.533,49.8,49.8,0,0,1,13.693,7.055,50.2,50.2,0,0,1,10.815,10.761,49.794,49.794,0,0,1,7.123,13.652H-4515a50.057,50.057,0,0,0-50,50v12.955l-45.8-.139a51.3,51.3,0,0,0,9.575,6.023,56.053,56.053,0,0,0,24.658,6.023A50.388,50.388,0,0,0-4565,2353.51V2368a49.913,49.913,0,0,0,2.614,16ZM-4602,2299.042a9.91,9.91,0,0,0-9.9,9.9,9.91,9.91,0,0,0,9.9,9.9,9.91,9.91,0,0,0,9.9-9.9A9.91,9.91,0,0,0-4602,2299.042Zm37,54.468h0v-10.554l21.8.066a59.624,59.624,0,0,1-21.8,10.489Zm21.25-34.671a9.91,9.91,0,0,1-9.9-9.9,9.91,9.91,0,0,1,9.9-9.9,9.91,9.91,0,0,1,9.9,9.9A9.91,9.91,0,0,1-4543.75,2318.839Z" transform="translate(4646 -2246)" fill="url(#linear-gradient)"/>
</svg>
